<?xml version="1.0" encoding="UTF-8"?>
<svg version="1.1" xmlns="http://www.w3.org/2000/svg" width="500" height="500">
<path d="M0 0 C1.02478203 -0.00043808 1.02478203 -0.00043808 2.07026672 -0.00088501 C4.32667781 0.00050747 6.58275799 0.01606449 8.83911133 0.03173828 C10.40423909 0.03546871 11.96936919 0.03831554 13.53450012 0.04031372 C17.65272475 0.04794784 21.77080818 0.06759438 25.88897705 0.08972168 C30.09173675 0.1101849 34.29451928 0.11931645 38.49731445 0.12939453 C46.74282194 0.15084052 54.98821469 0.18497375 63.23364258 0.22705078 C63.23364258 0.88705078 63.23364258 1.54705078 63.23364258 2.22705078 C64.22364258 2.22705078 65.21364258 2.22705078 66.23364258 2.22705078 C66.23364258 2.88705078 66.23364258 3.54705078 66.23364258 4.22705078 C66.89364258 4.22705078 67.55364258 4.22705078 68.23364258 4.22705078 C69.56453368 6.88883299 69.34633251 8.91444474 69.33129883 11.89111328 C69.32646484 13.57333984 69.32646484 13.57333984 69.3215332 15.28955078 C69.30896484 17.05298828 69.30896484 17.05298828 69.29614258 18.85205078 C69.29163086 20.03541016 69.28711914 21.21876953 69.2824707 22.43798828 C69.27065725 25.36772585 69.25418515 28.2973635 69.23364258 31.22705078 C69.88961426 31.22181396 70.54558594 31.21657715 71.22143555 31.21118164 C74.18382821 31.19043807 77.14620561 31.17739902 80.10864258 31.16455078 C81.65745117 31.15198242 81.65745117 31.15198242 83.23754883 31.13916016 C84.22368164 31.1359375 85.20981445 31.13271484 86.22583008 31.12939453 C87.59263916 31.12153931 87.59263916 31.12153931 88.98706055 31.11352539 C91.23364258 31.22705078 91.23364258 31.22705078 93.23364258 32.22705078 C93.23364258 32.88705078 93.23364258 33.54705078 93.23364258 34.22705078 C93.89364258 34.22705078 94.55364258 34.22705078 95.23364258 34.22705078 C95.23364258 35.21705078 95.23364258 36.20705078 95.23364258 37.22705078 C95.89364258 37.22705078 96.55364258 37.22705078 97.23364258 37.22705078 C97.23364258 61.64705078 97.23364258 86.06705078 97.23364258 111.22705078 C96.24364258 111.22705078 95.25364258 111.22705078 94.23364258 111.22705078 C94.23364258 110.56705078 94.23364258 109.90705078 94.23364258 109.22705078 C92.74864258 108.73205078 92.74864258 108.73205078 91.23364258 108.22705078 C91.23364258 107.56705078 91.23364258 106.90705078 91.23364258 106.22705078 C89.74864258 105.73205078 89.74864258 105.73205078 88.23364258 105.22705078 C88.23364258 104.56705078 88.23364258 103.90705078 88.23364258 103.22705078 C86.74864258 102.73205078 86.74864258 102.73205078 85.23364258 102.22705078 C85.23364258 101.56705078 85.23364258 100.90705078 85.23364258 100.22705078 C83.74864258 99.73205078 83.74864258 99.73205078 82.23364258 99.22705078 C82.23364258 98.56705078 82.23364258 97.90705078 82.23364258 97.22705078 C80.74864258 96.73205078 80.74864258 96.73205078 79.23364258 96.22705078 C79.23364258 95.56705078 79.23364258 94.90705078 79.23364258 94.22705078 C78.58297821 94.21896393 77.93231384 94.21087708 77.26193237 94.20254517 C70.48082155 94.11639004 63.69999935 94.0168814 56.91918945 93.90966797 C54.38961642 93.87141968 51.85998977 93.83655961 49.33032227 93.80517578 C45.69113014 93.75943574 42.0523058 93.70145484 38.41333008 93.64111328 C37.28498749 93.62956207 36.1566449 93.61801086 34.99411011 93.60610962 C29.71218938 93.50716043 25.16182745 93.3713755 20.23364258 91.22705078 C20.23364258 90.56705078 20.23364258 89.90705078 20.23364258 89.22705078 C19.57364258 89.22705078 18.91364258 89.22705078 18.23364258 89.22705078 C17.19416508 86.10861828 17.1186942 83.95229492 17.13598633 80.68408203 C17.13920898 79.6109375 17.14243164 78.53779297 17.14575195 77.43212891 C17.15413086 76.31257813 17.16250977 75.19302734 17.17114258 74.03955078 C17.1756543 72.90839844 17.18016602 71.77724609 17.18481445 70.61181641 C17.19660747 67.81687202 17.21454301 65.02195479 17.23364258 62.22705078 C13.60364258 62.22705078 9.97364258 62.22705078 6.23364258 62.22705078 C6.23364258 62.88705078 6.23364258 63.54705078 6.23364258 64.22705078 C4.5714899 65.5660071 2.9040065 66.8983522 1.23364258 68.22705078 C0.57364258 69.05205078 -0.08635742 69.87705078 -0.76635742 70.72705078 C-2.86999928 73.35660311 -5.10522077 75.18002258 -7.76635742 77.22705078 C-8.30260742 77.80455078 -8.83885742 78.38205078 -9.39135742 78.97705078 C-10.76635742 80.22705078 -10.76635742 80.22705078 -13.76635742 80.22705078 C-13.85908639 70.79545278 -13.9301369 61.36401198 -13.97360611 51.93205738 C-13.99447048 47.55227862 -14.02276677 43.17281201 -14.06811523 38.79321289 C-14.11161454 34.56568527 -14.13550318 30.33845767 -14.14586639 26.1107235 C-14.15325048 24.49876877 -14.16767009 22.88683025 -14.18927765 21.27500343 C-14.2183672 19.01492613 -14.2223113 16.75608436 -14.22045898 14.49584961 C-14.22934143 13.21011551 -14.23822388 11.92438141 -14.24737549 10.59968567 C-13.68058009 6.62562717 -12.56903861 5.04476544 -9.76635742 2.22705078 C-6.10305574 -0.21515034 -4.36524701 -0.01567414 0 0 Z " fill="#2095F2" transform="translate(203.766357421875,129.77294921875)"/>
<path d="M0 0 C3.58875 -0.020625 7.1775 -0.04125 10.875 -0.0625 C12.00534668 -0.071604 13.13569336 -0.08070801 14.30029297 -0.09008789 C15.18861816 -0.09258545 16.07694336 -0.09508301 16.9921875 -0.09765625 C18.35899658 -0.10551147 18.35899658 -0.10551147 19.75341797 -0.11352539 C22 0 22 0 24 1 C24 1.66 24 2.32 24 3 C24.66 3 25.32 3 26 3 C26 3.99 26 4.98 26 6 C26.66 6 27.32 6 28 6 C28 30.42 28 54.84 28 80 C27.01 80 26.02 80 25 80 C25 79.34 25 78.68 25 78 C23.515 77.505 23.515 77.505 22 77 C22 76.34 22 75.68 22 75 C20.515 74.505 20.515 74.505 19 74 C19 73.34 19 72.68 19 72 C17.515 71.505 17.515 71.505 16 71 C16 70.34 16 69.68 16 69 C14.515 68.505 14.515 68.505 13 68 C13 67.34 13 66.68 13 66 C11.515 65.505 11.515 65.505 10 65 C10 64.34 10 63.68 10 63 C9.34933563 62.99191315 8.69867126 62.98382629 8.02828979 62.97549438 C1.24717897 62.88933926 -5.53364323 62.78983062 -12.31445312 62.68261719 C-14.84402615 62.6443689 -17.3736528 62.60950883 -19.90332031 62.578125 C-23.54251244 62.53238496 -27.18133677 62.47440406 -30.8203125 62.4140625 C-31.94865509 62.40251129 -33.07699768 62.39096008 -34.23953247 62.37905884 C-39.5214532 62.28010965 -44.07181513 62.14432472 -49 60 C-49 59.34 -49 58.68 -49 58 C-49.66 58 -50.32 58 -51 58 C-52.0394775 54.8815675 -52.11494838 52.72524414 -52.09765625 49.45703125 C-52.09443359 48.38388672 -52.09121094 47.31074219 -52.08789062 46.20507812 C-52.07951172 45.08552734 -52.07113281 43.96597656 -52.0625 42.8125 C-52.05798828 41.68134766 -52.05347656 40.55019531 -52.04882812 39.38476562 C-52.03703498 36.58979073 -52.0205765 33.7949218 -52 31 C-50.03994019 30.99383667 -50.03994019 30.99383667 -48.0402832 30.98754883 C-43.18506605 30.96575196 -38.33065866 30.91145598 -33.47583008 30.84741211 C-31.37597422 30.82423704 -29.2760022 30.80983756 -27.17602539 30.80444336 C-24.15437475 30.79515037 -21.13454983 30.75415154 -18.11328125 30.70703125 C-17.17664139 30.7109639 -16.24000153 30.71489655 -15.27497864 30.71894836 C-10.67207319 30.61626616 -8.64780427 30.51054581 -4.93041992 27.58081055 C-3.01699834 25.18201192 -3.01699834 25.18201192 -2 23 C-1.34 23 -0.68 23 0 23 C0 15.41 0 7.82 0 0 Z " fill="#1463C1" transform="translate(273,161)"/>
<path d="M0 0 C3.3 0 6.6 0 10 0 C9 10.71428571 9 10.71428571 8 15 C8.99 14.34 9.98 13.68 11 13 C13.375 12.6640625 13.375 12.6640625 16 12.625 C16.86625 12.59664063 17.7325 12.56828125 18.625 12.5390625 C21 13 21 13 22.78515625 14.765625 C27.41226669 23.27593744 22.14485131 36.20993971 20 45 C16.7 45 13.4 45 10 45 C10.13277344 44.26136719 10.26554687 43.52273438 10.40234375 42.76171875 C11.60520339 35.85186083 12.47684141 28.9938043 13 22 C9.06924356 22.57452746 9.06924356 22.57452746 6 25 C5.3547731 27.12019234 5.3547731 27.12019234 4.9296875 29.5703125 C4.75566406 30.46621094 4.58164063 31.36210937 4.40234375 32.28515625 C4.22832031 33.22230469 4.05429688 34.15945313 3.875 35.125 C3.69324219 36.06988281 3.51148438 37.01476562 3.32421875 37.98828125 C2.87590984 40.32420665 2.43705953 42.66194369 2 45 C-1.3 45 -4.6 45 -8 45 C-7.31542429 35.45450765 -5.35873471 26.23074206 -3.4375 16.875 C-3.1043679 15.23446627 -2.77168195 13.59384189 -2.43945312 11.953125 C-1.63144244 7.96768602 -0.81740234 3.98352291 0 0 Z " fill="#FFFFFF" transform="translate(170,266)"/>
<path d="M0 0 C3.3 0 6.6 0 10 0 C9.01 4.95 8.02 9.9 7 15 C8.32 14.34 9.64 13.68 11 13 C13.25390625 12.69921875 13.25390625 12.69921875 15.5625 12.6875 C16.32691406 12.67074219 17.09132813 12.65398437 17.87890625 12.63671875 C20 13 20 13 21.75390625 14.19140625 C25.05370885 18.98077491 23.28844734 26.61166718 22.35546875 32.0546875 C20.47038059 42.05923882 20.47038059 42.05923882 19 45 C15.7 45 12.4 45 9 45 C9.2165625 43.92621094 9.433125 42.85242188 9.65625 41.74609375 C9.93784421 40.30996328 10.21907484 38.87376149 10.5 37.4375 C10.64308594 36.73302734 10.78617187 36.02855469 10.93359375 35.30273438 C11.80874925 30.78109762 12.14523405 26.60512972 12 22 C9.56282742 22.27034634 9.56282742 22.27034634 7 23 C5.11702938 25.82445592 4.5770565 27.23395272 3.9296875 30.44921875 C3.75566406 31.29677734 3.58164062 32.14433594 3.40234375 33.01757812 C3.22832031 33.89865234 3.05429687 34.77972656 2.875 35.6875 C2.69324219 36.58017578 2.51148438 37.47285156 2.32421875 38.39257812 C1.87689968 40.59385881 1.43766946 42.79678043 1 45 C-2.3 45 -5.6 45 -9 45 C-7.71193755 36.048395 -6.13035402 27.17537726 -4.34057617 18.31176758 C-3.93035392 16.27705525 -3.52647624 14.24114705 -3.12304688 12.20507812 C-2.86458984 10.91666016 -2.60613281 9.62824219 -2.33984375 8.30078125 C-2.10644287 7.13716064 -1.87304199 5.97354004 -1.63256836 4.7746582 C-1 2 -1 2 0 0 Z " fill="#FFFFFE" transform="translate(282,266)"/>
<path d="M0 0 C1.17369141 -0.00386719 1.17369141 -0.00386719 2.37109375 -0.0078125 C4.5625 0.125 4.5625 0.125 7.5625 1.125 C7.8925 0.795 8.2225 0.465 8.5625 0.125 C11.23308851 -0.01615161 13.88682238 0.08252893 16.5625 0.125 C15.09071565 10.91163007 12.87527928 21.49295156 10.5625 32.125 C7.9225 32.125 5.2825 32.125 2.5625 32.125 C2.2325 31.465 1.9025 30.805 1.5625 30.125 C1.088125 30.62 0.61375 31.115 0.125 31.625 C-3.64302978 33.83067597 -7.17016411 33.85452617 -11.4375 33.125 C-13.93910818 31.24879387 -15.05695652 29.88608697 -16.4375 27.125 C-17.37074332 18.69914603 -16.31703062 12.13932527 -11.4375 5.125 C-7.66452243 1.52750976 -5.16310608 -0.01695601 0 0 Z M-3.6875 10.5 C-5.97497806 13.9312171 -6.57557679 15.61408006 -6.5625 19.6875 C-6.56507813 20.49316406 -6.56765625 21.29882812 -6.5703125 22.12890625 C-6.65761391 24.12442021 -6.65761391 24.12442021 -5.4375 25.125 C-3.06528044 25.62635199 -3.06528044 25.62635199 -0.4375 25.125 C2.40284903 22.83694106 3.40980703 20.9571175 4.06640625 17.37890625 C4.35080974 14.61047226 4.58584955 11.90826607 4.5625 9.125 C3.51907219 7.88663834 3.51907219 7.88663834 1.25 7.75 C-1.66649196 7.8720363 -1.66649196 7.8720363 -3.6875 10.5 Z " fill="#FEFFFE" transform="translate(325.4375,278.875)"/>
<path d="M0 0 C1.875 1.75 1.875 1.75 2.9375 3.6875 C2.875 5.75 2.875 5.75 0.9375 8 C0.256875 8.5775 -0.42375 9.155 -1.125 9.75 C-1.99125 9.399375 -2.8575 9.04875 -3.75 8.6875 C-7.54476575 7.6333984 -9.402255 7.48268255 -13.125 8.75 C-17.25752016 12.69467833 -19.15298189 16.01509314 -20.125 21.75 C-20.17878309 27.4954135 -20.17878309 27.4954135 -17.75390625 32.49609375 C-15.22131572 34.44564186 -13.23219664 34.06071966 -10.125 33.75 C-7.33933941 32.83742694 -7.33933941 32.83742694 -5.125 31.75 C-3.805 33.73 -2.485 35.71 -1.125 37.75 C-7.82137323 43.21283079 -12.50543803 43.49451204 -21.125 42.75 C-25.03194695 40.99860999 -26.53483555 39.60472093 -28.9375 36.125 C-32.02477153 27.35064934 -31.40078316 19.42962983 -28.125 10.75 C-25.3790552 5.51394376 -21.87396032 1.73692995 -16.40625 -0.62890625 C-10.86058957 -2.13876928 -5.33722758 -2.13489103 0 0 Z " fill="#FFFFFF" transform="translate(270.125,269.25)"/>
<path d="M0 0 C2.63648742 1.40612663 3.97113294 2.74570327 6 5 C4.84826645 7.46800047 3.95216435 9.04783565 2 11 C0.25 10.6875 0.25 10.6875 -2 10 C-5.31394004 9.15388765 -7.33685517 8.79474089 -10.625 9.8125 C-14.7467522 13.60885071 -16.55671112 18.7875238 -17.31640625 24.29296875 C-17.4169255 27.86475284 -17.47997303 31.30437714 -15 34 C-10.03558604 35.33657299 -6.71532873 34.9551363 -2 33 C0.97992472 36.33751568 0.97992472 36.33751568 1.0625 39.0625 C-0.71055647 42.29572061 -2.510883 42.81724848 -6 44 C-11.64973337 44.64148819 -16.37074627 44.77175177 -21.5625 42.3125 C-26.45328366 37.67252576 -28.10551368 33.05016807 -28.3125 26.4375 C-28.20209641 18.12042943 -25.36939017 10.38096709 -19.546875 4.37109375 C-13.84840166 -0.6798258 -7.33429247 -1.12218683 0 0 Z " fill="#FFFEFF" transform="translate(156,268)"/>
<path d="M0 0 C2.97 0 5.94 0 9 0 C8.34 3.3 7.68 6.6 7 10 C9.31 10 11.62 10 14 10 C13.67 12.31 13.34 14.62 13 17 C10.36 17 7.72 17 5 17 C4.93941406 17.56847656 4.87882813 18.13695312 4.81640625 18.72265625 C4.40864515 22.4803316 3.96780711 26.20281518 3.375 29.9375 C2.72473409 32.90997474 2.72473409 32.90997474 4 35 C6.52733235 35.65555119 6.52733235 35.65555119 9 36 C9.33 37.98 9.66 39.96 10 42 C7.43435275 43.28282363 5.48966931 43.20391953 2.625 43.25 C1.66851562 43.27578125 0.71203125 43.3015625 -0.2734375 43.328125 C-3.51188999 42.93839719 -4.79205935 42.39949714 -7 40 C-8.63167026 34.88490346 -7.58358698 30.25216017 -6.5625 25.125 C-6.41490234 24.34125 -6.26730469 23.5575 -6.11523438 22.75 C-5.75260759 20.83158734 -5.37755985 18.91552965 -5 17 C-5.99 17 -6.98 17 -8 17 C-7.67 14.69 -7.34 12.38 -7 10 C-6.06414062 9.89365234 -6.06414062 9.89365234 -5.109375 9.78515625 C-2.80770679 9.19995468 -2.80770679 9.19995468 -1.953125 6.93359375 C-1.72109375 6.10988281 -1.4890625 5.28617187 -1.25 4.4375 C-1.00765625 3.61121094 -0.7653125 2.78492188 -0.515625 1.93359375 C-0.34546875 1.29550781 -0.1753125 0.65742188 0 0 Z " fill="#FFFEFF" transform="translate(224,269)"/>
<path d="M0 0 C2.05078125 0.03255208 4.1015625 0.06510417 6.15234375 0.09765625 C5.82234375 3.06765625 5.49234375 6.03765625 5.15234375 9.09765625 C8.12234375 9.59265625 8.12234375 9.59265625 11.15234375 10.09765625 C11.19488731 12.09720371 11.19315158 14.09807261 11.15234375 16.09765625 C10.15234375 17.09765625 10.15234375 17.09765625 6.58984375 17.16015625 C5.45546875 17.13953125 4.32109375 17.11890625 3.15234375 17.09765625 C2.81274185 18.97153102 2.48095684 20.84682322 2.15234375 22.72265625 C1.96671875 23.76679688 1.78109375 24.8109375 1.58984375 25.88671875 C1.16518578 29.0034049 1.07689169 31.95696437 1.15234375 35.09765625 C2.80234375 35.09765625 4.45234375 35.09765625 6.15234375 35.09765625 C6.53297596 37.42374195 6.8650432 39.75820889 7.15234375 42.09765625 C5.35058673 43.89941327 2.77499697 43.39609762 0.33984375 43.47265625 C-5.42630539 43.40409324 -5.42630539 43.40409324 -8.59765625 41.09765625 C-11.90117486 33.16921159 -8.88567318 25.05562713 -6.84765625 17.09765625 C-8.16765625 17.09765625 -9.48765625 17.09765625 -10.84765625 17.09765625 C-10.51765625 14.78765625 -10.18765625 12.47765625 -9.84765625 10.09765625 C-8.19765625 10.09765625 -6.54765625 10.09765625 -4.84765625 10.09765625 C-4.71488281 9.45957031 -4.58210938 8.82148438 -4.4453125 8.1640625 C-4.26871094 7.33777344 -4.09210938 6.51148438 -3.91015625 5.66015625 C-3.73613281 4.83644531 -3.56210937 4.01273437 -3.3828125 3.1640625 C-2.59896099 0.1373658 -2.59896099 0.1373658 0 0 Z " fill="#FFFFFF" transform="translate(355.84765625,268.90234375)"/>
<path d="M0 0 C3.46679688 0.04882812 3.46679688 0.04882812 6.93359375 0.09765625 C6.36676034 7.04136549 5.34257008 13.77739401 3.93359375 20.59765625 C3.66675781 21.93570312 3.66675781 21.93570312 3.39453125 23.30078125 C2.0699139 29.82501594 2.0699139 29.82501594 0.93359375 32.09765625 C-2.36640625 32.09765625 -5.66640625 32.09765625 -9.06640625 32.09765625 C-8.23516103 27.70013758 -7.39888313 23.30361575 -6.55786133 18.90795898 C-6.27228372 17.41148029 -5.98809993 15.91473492 -5.70532227 14.41772461 C-5.29937251 12.2699589 -4.88847196 10.12319211 -4.4765625 7.9765625 C-4.23043213 6.68306885 -3.98430176 5.3895752 -3.73071289 4.05688477 C-2.85023547 0.13469922 -2.85023547 0.13469922 0 0 Z " fill="#FFFFFF" transform="translate(205.06640625,278.90234375)"/>
<path d="M0 0 C3.5 0.25 3.5 0.25 5.5 2.25 C5.875 4.6875 5.875 4.6875 5.5 7.25 C3.875 9.125 3.875 9.125 1.5 10.25 C-3.92553191 9.82446809 -3.92553191 9.82446809 -5.5 8.25 C-5.6875 5.3125 -5.6875 5.3125 -5.5 2.25 C-3.5 0.25 -3.5 0.25 0 0 Z " fill="#FFFFFF" transform="translate(209.5,264.75)"/>
</svg>
